<svg width="34" height="28" viewBox="0 0 34 28" fill="none" xmlns="http://www.w3.org/2000/svg">
<path fill-rule="evenodd" clip-rule="evenodd" d="M10 1.5C10 0.671573 9.32843 0 8.5 0H6.11111C2.73604 0 0 2.73604 0 6.11111V8.5C0 9.32843 0.671573 10 1.5 10V10C2.32843 10 3 9.32843 3 8.5V6.11111C3 4.39289 4.39289 3 6.11111 3H8.5C9.32843 3 10 2.32843 10 1.5V1.5ZM3 19.5C3 18.6716 2.32843 18 1.5 18V18C0.671573 18 0 18.6716 0 19.5V21.6667C0 25.0417 2.73604 27.7778 6.11111 27.7778H8.5C9.32843 27.7778 10 27.1062 10 26.2778V26.2778C10 25.4493 9.32843 24.7778 8.5 24.7778H6.11111C4.39289 24.7778 3 23.3849 3 21.6667V19.5ZM24 1.5C24 2.32843 24.6716 3 25.5 3H27.8889C29.6071 3 31 4.39289 31 6.11111V8.5C31 9.32843 31.6716 10 32.5 10V10C33.3284 10 34 9.32843 34 8.5V6.11111C34 2.73604 31.264 0 27.8889 0H25.5C24.6716 0 24 0.671573 24 1.5V1.5ZM31 21.6667V19.5C31 18.6716 31.6716 18 32.5 18V18C33.3284 18 34 18.6716 34 19.5V21.6667C34 25.0417 31.264 27.7778 27.8889 27.7778H25.5C24.6716 27.7778 24 27.1062 24 26.2778V26.2778C24 25.4493 24.6716 24.7778 25.5 24.7778H27.8889C29.6071 24.7778 31 23.3849 31 21.6667Z" fill="white"/>
</svg>
